<svg width="251" height="62" viewBox="0 0 251 62" fill="none" xmlns="http://www.w3.org/2000/svg">
<path d="M63.5498 37.3942L60.2116 40.7839V45.514H57.5964V27.2252H60.2116V37.4404L70.1187 27.2252H73.0877L65.2882 35.4529L73.58 45.514H70.534L63.5498 37.3942ZM87.2561 40.9534H77.549L75.5491 45.5294H72.857L81.118 27.2406H83.7024L91.9942 45.5294H89.256L87.2407 40.9534H87.2561ZM86.3484 38.8579L82.4102 29.9061L78.472 38.8579H86.3484ZM106.932 45.514L102.994 39.9056C102.224 39.9981 98.1785 39.9519 97.3324 39.9519V45.514H94.7172V27.2252H101.84C109.87 26.4548 112.331 36.8087 105.44 39.3664L109.762 45.4986H106.916L106.932 45.514ZM106.855 33.6039C107.27 28.9509 100.748 29.4131 97.3324 29.5055V37.7332C100.763 37.8256 107.27 38.2724 106.855 33.6039ZM125.315 40.9379H115.608L113.608 45.514H110.916L119.177 27.2252H121.762L130.053 45.514H127.315L125.3 40.9379H125.315ZM124.408 38.8425L120.469 29.8907L116.531 38.8425H124.408ZM143.422 29.4901H137.161V27.2098H152.267V29.4901H146.006V45.4986H143.422V29.4901ZM167.313 45.4986L163.374 39.8902C162.605 39.9827 158.559 39.9365 157.713 39.9365V45.4986H155.098V27.2098H162.221C170.251 26.4394 172.712 36.7933 165.82 39.351L170.143 45.4832H167.297L167.313 45.4986ZM167.236 33.5885C167.651 28.9355 161.128 29.3977 157.713 29.4901V37.7178C161.144 37.8102 167.651 38.257 167.236 33.5885ZM185.696 40.9225H175.989L173.989 45.4986H171.297L179.558 27.2098H182.143L190.434 45.4986H187.696L185.681 40.9225H185.696ZM184.789 38.8271L180.85 29.8753L176.912 38.8271H184.789ZM207.895 33.5731C208.31 39.7053 200.803 40.3679 195.772 39.9519V45.4832H193.157V27.1944C198.372 27.0866 208.372 26.2545 207.895 33.5731ZM205.28 33.5731C205.695 28.9201 199.172 29.3823 195.757 29.4747V37.6715C199.172 37.764 205.695 38.2262 205.28 33.5731ZM211.725 27.1944H214.341V43.2029H224.217V45.4678H211.725V27.179V27.1944ZM227.217 27.1944H229.832V45.4832H227.217V27.1944ZM251 27.1944V45.4832H248.862L237.908 31.8475V45.4832H235.293V27.1944H237.431L248.385 40.8301V27.1944H251ZM56.5195 47.7943C61.9499 47.4862 70.8263 47.3629 70.5033 54.7585C70.8263 62.1387 61.9499 62.0309 56.5195 61.7227V47.7943ZM62.673 59.0726C68.688 59.4424 68.688 50.0746 62.673 50.4444H59.7347V59.0726H62.673ZM87.6407 59.1343V61.7227H76.8721V47.7943H87.3791V50.3828H80.0719V53.4027H86.533V55.9141H80.0719V59.1343H87.6407ZM93.0711 60.3515L94.1633 57.9171C95.5479 59.2113 101.209 60.4285 101.424 57.8708C101.424 55.267 93.348 57.0542 93.348 51.8773C92.8403 47.5632 100.763 46.3922 104.04 48.7804L103.04 51.2302C101.286 50.0284 96.6555 49.3659 96.5478 51.7232C96.5478 54.2809 104.624 52.5244 104.624 57.6243C105.178 62.3236 95.9786 62.9862 93.0711 60.3361V60.3515ZM110.793 47.7943H114.008V61.7227H110.793V47.7943ZM130.669 54.5428H133.607V60.1974C115.285 69.673 117.439 38.6422 133.869 49.9822L131.807 51.8927C123.023 44.7282 119.993 62.678 130.669 58.6412V54.5582V54.5428ZM153.298 47.7943V61.7227H150.652L143.714 53.264V61.7227H140.53V47.7943H143.191L150.098 56.253V47.7943H153.283H153.298ZM52.9505 22.9881C52.9351 23.2501 52.9813 58.934 52.9351 59.1805C52.5967 63.2019 45.2279 61.353 42.7203 61.5533C38.6437 63.1094 41.6435 14.3445 40.782 13.1889C44.5049 12.7113 48.4277 12.927 52.0736 13.7436C51.0891 16.7943 51.0891 20.2918 52.9505 23.0036V22.9881ZM68.688 15.3768C68.688 15.1303 68.6264 14.3445 68.6111 14.0826H68.5803C63.5037 -8.84386 20.091 -0.801119 12.1684 17.4106V2.5115C11.9992 1.12482 10.8454 0.0771103 9.44546 0.0771103C7.07638 0.539337 -0.123179 -1.46364 -0.000109753 2.81965V58.9186C-0.138563 63.1556 7.07638 61.2759 9.44546 61.6611C10.8454 61.6611 11.9992 60.6134 12.1684 59.2267V44.2814C17.1065 53.0945 27.8751 59.5657 38.536 61.1372V50.2749C10.8761 44.7128 16.0912 12.0334 42.2742 10.8624L42.3204 10.8008C47.6585 10.6005 49.5815 10.6313 55.658 12.5572C54.8273 13.2968 54.4273 14.4986 53.8427 15.3768C51.5506 28.3346 70.0725 28.0264 68.6572 15.3768H68.688Z" fill="black"/>
</svg>
