<svg width="36" height="38" viewBox="0 0 36 38" fill="none" xmlns="http://www.w3.org/2000/svg">
<path d="M35.975 9.63578C35.9594 8.50962 35.8708 7.36145 35.632 6.26722C35.0408 3.57017 33.4788 1.70755 31.0223 0.682672C29.6866 0.12675 28.2831 0.0309768 26.8859 0.0232709C20.9593 -0.00865335 15.0317 -0.00755251 9.10399 0.0254726C8.05609 0.0309768 6.98838 0.145464 5.96447 0.382144C3.95104 0.846697 2.38285 2.0312 1.2703 3.89932C0.255769 5.60341 0.0357622 7.50346 0.0253354 9.42772C-0.0101159 15.8126 -0.00803055 22.1985 0.0295061 28.5834C0.0357622 29.7238 0.175482 30.8896 0.434068 31.9971C0.899105 33.9907 2.00435 35.5396 3.67473 36.6459C5.318 37.7335 7.15104 37.9669 9.01223 37.9768C14.9566 38.0098 20.9009 38.0065 26.8453 37.9735C27.9109 37.968 28.9995 37.8634 30.0369 37.6168C32.4914 37.0323 34.2504 35.4823 35.2514 33.0264C35.9323 31.3575 35.9781 29.5785 35.9865 27.8029C36.0011 24.8758 35.9907 21.9486 35.9907 19.0215C35.9907 15.8929 36.0199 12.7633 35.975 9.63578V9.63578ZM28.1914 31.0096C28.1914 32.5409 27.5074 33.2696 26.0695 33.2707C20.682 33.2718 15.2934 33.2718 9.90582 33.2707C8.56597 33.2696 7.81106 32.477 7.81002 31.0702C7.80898 27.0466 7.81002 23.0231 7.81002 18.9995C7.81002 14.9759 7.80898 11.025 7.81002 7.0378C7.81002 5.55608 8.53781 4.74366 9.94544 4.73595C13.5667 4.71834 17.1869 4.71724 20.8081 4.75026C21.147 4.75357 21.5568 4.96383 21.807 5.21702C22.8049 6.22428 23.7464 7.2932 24.7213 8.32578C25.5857 9.24278 26.4491 10.1642 27.3499 11.0404C27.8953 11.5721 28.2195 12.0995 28.2143 12.9592C28.1726 18.9753 28.1924 24.9925 28.1914 31.0096ZM23.4086 22.8018C23.4086 21.4489 23.4107 20.0948 23.4075 18.7419C23.4065 18.0539 23.3731 18.0142 22.7413 18.0142C19.5882 18.012 16.4341 18.0109 13.281 18.0131C12.6314 18.0142 12.5949 18.0517 12.5939 18.721C12.5918 21.4279 12.5918 24.1349 12.5939 26.8419C12.5939 27.5112 12.6981 27.6466 13.3446 27.6565C13.8618 27.6642 14.38 27.5717 14.8971 27.5695C17.0388 27.5585 19.1805 27.5629 21.3222 27.5662C21.806 27.5662 22.2898 27.5783 22.7725 27.5959C23.2616 27.6124 23.4284 27.3791 23.418 26.8628C23.3898 25.5098 23.4086 24.1558 23.4086 22.8018ZM14.0119 18.7925C15.0337 18.7826 16.0556 18.787 17.0774 18.7826C17.4236 18.7826 17.5841 18.9577 17.5841 19.3198C17.5831 21.2309 17.7499 20.9524 16.1578 20.9744C15.9503 20.9777 15.7417 20.9744 15.5342 20.9744V20.9711C15.0317 20.9711 14.5291 20.9711 14.0265 20.9711C13.6178 20.9722 13.4228 20.7564 13.4249 20.3282C13.427 20.0541 13.4551 19.7734 13.4134 19.5059C13.3321 18.9863 13.5771 18.7969 14.0119 18.7925ZM16.1786 26.9002C15.9544 26.9123 15.7292 26.9002 15.504 26.9002V26.8936C14.9868 26.8936 14.4686 26.9013 13.9504 26.8903C13.5573 26.8826 13.3237 26.702 13.3967 26.2397C13.4113 26.1494 13.4197 26.0581 13.4186 25.9667C13.3988 24.5653 13.3926 24.715 14.698 24.7073C15.4592 24.7029 16.2193 24.7161 16.9794 24.704C17.3819 24.6974 17.5841 24.8471 17.5894 25.304C17.6092 27.2547 17.5727 26.8209 16.1786 26.8991V26.9002ZM17.5654 23.3368C17.6446 23.7353 17.3944 23.874 16.9877 23.8619C15.9888 23.83 14.9879 23.8487 13.989 23.8817C13.5938 23.8938 13.3946 23.7683 13.4092 23.3368C13.4676 21.6008 13.2226 21.7417 14.917 21.7439H15.5384C15.9701 21.7439 16.4017 21.7428 16.8324 21.7439C16.9366 21.7439 17.0482 21.7219 17.142 21.7549C18.0033 22.0554 17.4601 22.8029 17.5654 23.3368V23.3368ZM18.4287 19.2428C18.4058 19.1316 18.7082 18.819 18.8677 18.8135C19.9531 18.7727 21.0417 18.7694 22.1271 18.8079C22.2804 18.8135 22.5244 19.0898 22.5536 19.2714C22.6182 19.6787 22.5734 20.1058 22.5744 20.5242C22.5765 20.8511 22.4055 20.9744 22.1157 20.9733C21.5808 20.9689 21.0459 20.9722 20.511 20.9722V20.9744C20.0616 20.9744 19.6132 20.9755 19.1649 20.9744C19.0439 20.9733 18.9042 21.0041 18.8062 20.9513C18.0617 20.5517 18.5465 19.8152 18.4287 19.2428V19.2428ZM21.9707 26.8881C20.9677 26.9101 19.9636 26.9156 18.9605 26.8892C18.4391 26.8749 18.3922 26.6701 18.411 25.3744C18.4173 24.9231 18.5507 24.6875 19.0105 24.7051C19.511 24.7238 20.0136 24.7095 20.5151 24.7095V24.7117C21.0344 24.7117 21.5526 24.7139 22.0719 24.7106C22.4159 24.7084 22.5796 24.8846 22.5776 25.2467C22.5755 25.5396 22.5505 25.8379 22.5984 26.1219C22.6902 26.6745 22.4086 26.8782 21.9707 26.8881V26.8881ZM22.2126 23.8894C21.1585 23.8685 20.1054 23.8355 19.0512 23.8388C18.583 23.841 18.4141 23.6472 18.4089 23.1563C18.3933 21.7439 18.3797 21.7439 19.7237 21.7428H20.5016C20.7998 21.7439 21.098 21.7472 21.3962 21.7472C21.5995 21.7472 21.8028 21.7461 22.0062 21.7417C22.3909 21.734 22.5838 21.898 22.5817 22.3218C22.5796 22.6862 22.6078 23.0506 22.6297 23.4139C22.6505 23.7342 22.5233 23.8949 22.2126 23.8894V23.8894Z" fill="black"/>
</svg>
