<svg width="39" height="39" viewBox="0 0 39 39" fill="none" xmlns="http://www.w3.org/2000/svg">
<g clip-path="url(#clip0_401_4)">
<path d="M14.0545 21.9432C13.7381 20.8121 12.8343 20.1334 11.7949 20.0882C10.7555 20.0429 9.71611 20.7216 9.30939 21.6717C8.54114 23.5267 9.7613 25.7436 11.7497 26.0603C12.9247 26.2413 13.7833 25.6984 14.0997 24.5673C14.19 24.2053 14.2352 23.8434 14.2804 23.4362C14.19 22.9838 14.1448 22.4861 14.0093 21.9884L14.0545 21.9432ZM13.241 24.522C12.9247 24.8387 12.3372 24.6578 12.1564 24.2506C11.9757 23.8886 12.0209 23.5719 12.1564 23.21C12.2016 23.029 12.2468 22.848 12.2468 22.6671C12.2468 22.3503 11.9757 22.0789 11.6593 21.9884C11.2978 21.8979 10.9815 22.0336 10.8007 22.3503C10.7103 22.5313 10.6651 22.7123 10.5747 22.848C10.5747 22.8933 10.4392 22.9838 10.3488 22.9838C10.3488 22.9838 10.2132 22.8933 10.2132 22.8028C10.2132 22.2599 10.3488 21.7622 10.7555 21.4002C11.117 21.0835 11.5689 20.993 12.066 21.174C12.5632 21.355 12.9247 21.8979 12.9699 22.4408C12.9247 22.6671 12.8343 22.9385 12.7439 23.1647C12.6987 23.3005 12.6083 23.4814 12.5632 23.6172C12.4276 24.0244 12.6535 24.2506 13.0603 24.2053C13.1506 24.2053 13.241 24.2053 13.3314 24.2506C13.3314 24.3411 13.2862 24.4316 13.1958 24.4768L13.241 24.522ZM19.8389 8.82251C18.212 9.86311 16.6756 10.949 15.3198 12.3063C13.467 14.1613 12.1112 16.3782 11.1622 18.8213C11.0718 19.0476 10.9815 19.1381 10.7103 19.2285C9.94206 19.4548 9.26419 19.9072 8.81228 20.5406C7.99884 20.0429 7.50174 19.3643 7.6825 18.3689C7.77289 17.9165 7.86327 17.464 8.04403 17.0116C8.58633 15.5186 9.44496 14.1613 10.394 12.8944C11.8853 10.949 13.6477 9.2297 15.7717 7.96288C16.54 7.4652 17.3986 7.10325 18.3024 6.92227C18.9351 6.83179 19.4774 6.92227 19.8841 7.41995C20.1553 7.73666 20.4716 8.00812 20.7428 8.37007C20.4264 8.55104 20.1101 8.73202 19.7937 8.95824L19.8389 8.82251ZM16.3592 13.5278C17.3082 12.3968 18.438 11.4014 19.8389 10.6775C19.7034 10.9942 19.613 11.2657 19.4774 11.5371C19.4774 11.5371 19.4774 11.5371 19.5226 11.5824C20.4716 11.0394 21.4206 10.587 22.5956 10.5418C22.4148 10.768 22.2341 10.9037 22.0081 11.1299C22.9571 11.2204 23.8158 11.3561 24.584 11.8538C21.6014 11.2657 18.8447 11.8538 16.314 13.5278H16.3592ZM30.7752 23.9339C30.6396 23.4362 30.5041 22.9838 30.3685 22.4861C30.0521 22.7123 29.781 22.8933 29.5098 23.029C27.657 24.1149 25.6234 24.522 23.4994 24.4768C23.0023 24.4768 22.5052 24.3863 22.0533 24.3863C21.6918 24.3863 21.511 24.522 21.4206 24.884C22.8216 25.3817 24.2225 25.4269 25.7138 25.3817C24.2677 26.0151 22.8216 25.8341 21.3302 25.4269C21.4658 25.9698 21.8273 26.2865 22.2793 26.4223C22.8667 26.558 23.4542 26.6937 24.0869 26.739C25.4878 26.8295 26.8436 26.4675 28.1089 25.9246C28.7868 25.6079 29.4647 25.2459 30.1877 24.884C29.8714 25.3364 29.5098 25.6531 29.1031 25.9246C27.4311 27.0557 25.5782 27.4629 23.5898 27.3724C22.8667 27.3724 22.1437 27.1462 21.4658 26.739C21.1043 26.5128 20.8331 26.1961 20.6524 25.7889C20.336 24.9292 20.8331 23.5267 22.2341 23.7077C24.2677 23.9791 26.2109 23.7077 28.1089 22.8933C28.8772 22.5766 29.6002 22.1694 30.0973 21.4907C30.5944 20.8121 30.4589 20.1334 29.7358 19.7262C29.555 19.6357 29.4195 19.5452 29.2387 19.5C28.8772 19.3643 28.5156 19.2738 28.1541 19.1381C27.4762 18.9118 27.3407 18.8213 27.3407 18.0522C27.3407 18.0522 27.3407 18.007 27.3407 17.9617C27.3407 17.2831 27.3407 16.6044 27.2051 15.9258C27.1599 15.5186 27.0243 15.1114 26.8436 14.7494C26.6176 14.297 26.1657 14.116 25.7138 14.297C25.3975 14.3875 25.1263 14.5684 24.8552 14.7947C24.2677 15.2471 23.635 15.4733 22.9119 15.4733C22.46 15.4733 22.0081 15.4281 21.6014 15.3828C20.1101 15.2019 18.8447 16.0615 18.4832 17.5093C18.2121 18.6404 18.4832 19.681 19.2514 20.5858C19.5226 20.9026 19.7486 21.174 20.0197 21.4907C20.2005 21.7169 20.1553 21.8979 20.0197 22.0789C19.2514 22.8933 18.8447 23.8434 18.7543 24.9292C18.6188 26.3318 18.8899 27.5986 19.8389 28.6845C20.8331 29.8608 22.1437 30.4037 23.635 30.5394C26.2109 30.7204 28.4253 29.906 30.1877 27.9606C30.956 27.1009 31.4531 26.0603 31.4983 24.884C31.4983 24.2958 31.4079 24.1148 30.8204 24.0244L30.7752 23.9339ZM26.482 20.3596C26.482 20.3596 26.1205 20.1334 26.1205 19.8619C26.1205 19.5905 26.2561 19.3643 26.482 19.3643C26.6628 19.3643 26.8436 19.5452 26.8436 19.8167C26.8436 20.0882 26.708 20.3144 26.482 20.3144V20.3596ZM25.9397 16.6949C26.2109 16.6949 26.3465 16.8306 26.4368 17.0568C26.5724 17.4188 26.6628 17.826 26.7532 18.1879C26.7532 18.1879 26.7532 18.1879 26.708 18.1879C26.708 18.1879 26.708 18.2784 26.708 18.3237C26.6628 18.4594 26.6176 18.6856 26.5272 18.7309C26.2109 18.8666 25.9849 18.7309 25.8946 18.5046C25.759 18.0974 25.6686 17.645 25.5782 17.2378C25.5782 16.9211 25.7138 16.7401 25.9397 16.6949ZM24.9455 20.0429C25.2619 20.0429 25.5782 20.2691 25.533 20.4954C25.533 20.7216 25.3523 20.7668 25.1715 20.7668C24.9003 20.7668 24.584 20.5406 24.6292 20.3144C24.6292 20.0882 24.81 20.0429 24.9455 20.0429ZM21.3754 20.1787C21.3754 19.8619 21.737 19.6357 22.2341 19.5905C22.6408 19.5905 23.0475 19.7262 23.0927 19.9977C22.5052 20.0429 21.9177 20.1334 21.3302 20.1787H21.3754ZM20.336 19.2738C20.336 19.2738 20.336 19.0928 20.4264 19.0476C20.7879 18.6404 21.2851 18.4594 21.7822 18.4142C22.3244 18.4142 22.8216 18.5951 23.1831 19.0476C23.2283 19.1381 23.2283 19.2285 23.2735 19.319C23.1831 19.319 23.0475 19.319 23.0023 19.319C22.2341 18.9118 21.4658 18.9571 20.6976 19.2285H20.6072C20.5168 19.2285 20.4264 19.2285 20.3812 19.2285L20.336 19.2738ZM34.4357 0H4.56431C2.0336 0 0 2.03596 0 4.56961V34.4304C0 36.964 2.0336 39 4.56431 39H34.4357C36.9664 39 39 36.964 39 34.4304V4.56961C39 2.03596 36.9664 0 34.4357 0ZM31.7694 27.4176C30.3685 30.5847 27.883 32.3039 24.5388 32.9826C24.0869 33.0731 23.5898 33.1183 23.1379 33.2088H21.1495C21.1495 33.2088 21.0139 33.2088 20.9687 33.1636C20.0197 33.0731 19.1159 32.8921 18.2572 32.5754C15.5458 31.6253 13.5122 29.906 12.292 27.2819C12.292 27.1914 12.1564 27.1009 12.066 27.1009C11.0267 27.0557 10.1228 26.6032 9.35458 25.8794C8.08922 24.6578 7.77289 23.21 8.26999 21.5812C8.31518 21.4002 8.26999 21.3097 8.17961 21.2193C7.99884 21.0835 7.81808 20.9026 7.63731 20.7668C6.82387 20.1334 6.59791 19.2738 6.6883 18.2784C6.77868 17.1926 7.1854 16.1972 7.6825 15.2471C9.17381 12.3968 11.2526 10.0441 13.7833 8.05336C14.8227 7.19374 15.9525 6.46984 17.263 6.06265C17.5794 5.97216 17.8957 5.88167 18.2121 5.79118H19.1159C19.8841 5.92691 20.4264 6.37935 20.9235 6.92227C21.1043 7.14849 21.3754 7.32947 21.5562 7.55568C21.6918 7.73666 21.8273 7.73666 22.0081 7.64617C22.5504 7.41995 23.1379 7.19374 23.6802 7.01276C24.81 6.69606 25.9397 6.51508 27.0695 6.78654C28.5156 7.10325 29.1935 8.14385 28.9676 9.59165C28.832 10.4513 28.4253 11.1752 27.9282 11.8991C27.6118 12.3063 27.2955 12.6682 26.9791 13.0754C27.6118 13.8445 27.9282 14.4327 28.1089 15.3828C28.2445 16.1972 28.2445 17.0116 28.2445 17.8712C28.2445 18.0522 28.2897 18.1427 28.5156 18.1879C29.2387 18.3689 29.9166 18.5951 30.5041 19.0476C31.2271 19.5905 31.5886 20.4954 31.2271 21.2645C31.0012 21.8074 31.0463 22.2146 31.2271 22.7123C31.3175 22.9385 31.3627 23.1647 31.679 23.2552C31.8598 23.3005 32.0406 23.4814 32.1309 23.6624C32.2665 23.9339 32.4021 24.2958 32.4021 24.6125C32.4021 25.6079 32.1761 26.558 31.8146 27.4176H31.7694Z" fill="#231F20"/>
</g>
<defs>
<clipPath id="clip0_401_4">
<rect width="39" height="39" fill="white"/>
</clipPath>
</defs>
</svg>
