<svg width="35" height="37" viewBox="0 0 35 37" fill="none" xmlns="http://www.w3.org/2000/svg">
<path d="M34.9887 9.54845C34.9862 8.6745 34.9363 7.79449 34.8268 6.92832C34.5495 4.72572 33.5494 2.95102 31.8598 1.62064C30.2921 0.386214 28.4742 0.0291991 26.5811 0.0136391C23.5561 -0.0122942 20.5303 0.00672359 17.5053 0.00672359C14.7935 0.00672359 12.0818 -0.00797194 9.36999 0.0145036C8.43363 0.0222836 7.48991 0.0577257 6.56418 0.19085C4.2474 0.521932 2.44337 1.74685 1.19625 3.84917C0.274611 5.40258 0.0112854 7.14011 0.00801427 8.92951C-0.00343469 15.1232 -0.00261691 21.3178 0.0104676 27.5116C0.012921 28.3855 0.0570812 29.2681 0.177295 30.1308C0.51504 32.5426 1.66975 34.4176 3.62834 35.7221C5.11098 36.7084 6.77353 36.9816 8.47697 36.9876C14.2006 37.0066 19.9243 37.0014 25.6471 36.9876C26.5565 36.985 27.4716 36.9375 28.3728 36.8199C30.4254 36.5502 32.1035 35.5414 33.3776 33.8073C34.6158 32.1225 34.9854 30.1533 34.9903 28.0882C35.005 21.9083 35.0018 15.7284 34.9887 9.54845ZM17.0923 19.9062C16.1461 20.8363 14.9759 21.2591 13.7288 21.4155C12.8014 21.5322 11.8593 21.5236 10.8584 21.5737V25.3349C10.8584 26.1371 10.4824 26.5382 9.73063 26.5382C9.18599 26.5382 8.64053 26.5183 8.09589 26.5451C7.76877 26.5607 7.68209 26.4414 7.68291 26.1034C7.69354 23.007 7.68945 19.9105 7.68945 16.8141C7.68945 14.8985 7.69681 12.9829 7.68291 11.0673C7.68045 10.7154 7.77041 10.5936 8.11551 10.5936C9.76416 10.5944 11.4128 10.5374 13.0606 10.5633C14.4362 10.5849 15.7299 10.967 16.829 11.8859C17.9289 12.8039 18.4817 14.0332 18.5619 15.5045C18.6535 17.1884 18.3043 18.7124 17.0923 19.9062ZM26.6318 26.119C25.3781 26.7984 24.0451 26.8857 22.6941 26.7379C21.9843 26.6592 21.29 26.4241 20.5924 26.2426C20.2907 26.1639 20.1705 25.9443 20.1786 25.5994C20.1991 24.7696 20.186 23.9397 20.186 23.0268C20.379 23.1211 20.4992 23.1729 20.6129 23.2369C21.6989 23.8403 22.8585 24.0944 24.0786 24.0374C24.3191 24.0261 24.5906 24.0037 24.7876 23.8801C24.9995 23.7478 25.2554 23.5049 25.2816 23.2827C25.3078 23.0588 25.1319 22.7165 24.9438 22.5765C24.5832 22.3076 24.1498 22.1468 23.7482 21.9385C23.0294 21.5659 22.2607 21.2712 21.6032 20.8026C19.4353 19.2579 19.6487 16.0776 21.9728 14.793C23.1186 14.1594 24.3526 14.1101 25.5964 14.2363C26.2139 14.2994 26.8231 14.4671 27.4299 14.6158C27.5477 14.6452 27.7219 14.8034 27.7243 14.9063C27.748 15.7932 27.7374 16.681 27.7374 17.6293C27.5763 17.5731 27.4765 17.5471 27.3833 17.5048C26.3145 17.0112 25.2006 16.8098 24.0386 16.9291C23.8914 16.9446 23.7409 16.9766 23.6035 17.0337C23.0392 17.2671 22.9256 17.924 23.4301 18.2811C23.8995 18.613 24.4385 18.836 24.9496 19.1005C25.6079 19.442 26.2948 19.7299 26.9245 20.1206C29.144 21.4976 28.8038 24.9407 26.6318 26.119ZM15.4559 16.2738C15.3881 17.306 14.8508 17.975 13.9479 18.3208C12.9625 18.6986 11.9403 18.6095 10.8755 18.5827V13.5024C12.049 13.4981 13.2242 13.2768 14.3217 13.8836C15.2351 14.3876 15.523 15.2477 15.4559 16.2738Z" fill="black"/>
</svg>
