<svg width="36" height="37" viewBox="0 0 36 37" fill="none" xmlns="http://www.w3.org/2000/svg">
<path d="M35.9965 6.78128C35.9942 3.57312 33.9662 0.903854 31.0009 0.188659C30.6232 0.0974185 30.2333 0.0613024 29.8492 0H6.168C5.76275 0.0674801 5.353 0.114051 4.95271 0.206242C2.42294 0.790278 0.450779 3.05086 0.0996221 5.75435C0.067166 6.00383 0.0329068 6.25284 0 6.50186V30.5167C0.0640106 30.9449 0.106835 31.3778 0.195638 31.7998C0.760013 34.479 2.88138 36.5329 5.4711 36.9121C5.80423 36.9611 6.14276 36.9958 6.47859 36.9958C14.1675 37.0005 21.8565 37.001 29.5454 36.9986C32.4087 36.9977 34.8596 35.1187 35.6994 32.2973C35.8987 31.6278 35.9951 30.9406 35.9956 30.2435C36.0001 22.4229 36.0023 14.6023 35.9965 6.78128V6.78128ZM18.9476 26.0687C17.9802 26.0706 17.0124 26.0659 16.0446 26.072C15.8214 26.0739 15.7042 25.9761 15.6344 25.756C15.2841 24.655 14.9208 23.5587 14.5723 22.4571C14.5079 22.2537 14.4154 22.1701 14.2036 22.1729C13.371 22.1853 12.5384 22.1782 11.7054 22.1782C10.8723 22.1782 10.0402 22.1881 9.2076 22.172C8.96509 22.1672 8.86591 22.2618 8.79694 22.4937C8.47644 23.58 8.14106 24.6611 7.81019 25.7437C7.70291 26.0944 7.66684 26.12 7.31163 26.1205C6.47904 26.121 5.64645 26.121 4.81341 26.1205C4.4307 26.12 4.37345 26.0383 4.50012 25.6548C5.28177 23.2902 6.06568 20.926 6.84778 18.5613C7.67406 16.0622 8.508 13.5659 9.31624 11.0606C9.44652 10.6562 9.47492 10.2123 9.5209 9.7832C9.54253 9.58313 9.61105 9.49284 9.79362 9.49284C11.0161 9.49237 12.2391 9.49427 13.4621 9.49094C13.6843 9.49046 13.7686 9.62923 13.8353 9.82596C14.6949 12.3717 15.5591 14.9155 16.4228 17.4593C17.3293 20.1295 18.2367 22.8002 19.1437 25.4704C19.1662 25.5374 19.1883 25.6044 19.209 25.6724C19.3032 25.9813 19.2491 26.0678 18.9476 26.0687V26.0687ZM30.7571 20.4783C30.7368 20.6575 30.6128 20.7373 30.4564 20.7406C29.8059 20.7535 29.155 20.7587 28.5045 20.7644C28.3621 20.7658 28.2196 20.7554 28.0772 20.7549C26.5995 20.7544 25.1219 20.7544 23.6442 20.7544C23.3431 20.7544 23.3255 20.7815 23.3936 21.0994C23.6713 22.401 24.4998 23.072 25.689 23.3329C26.6018 23.5335 27.5097 23.4441 28.4117 23.2626C28.8075 23.1832 29.1987 23.0692 29.5846 22.9452C29.7811 22.8819 29.8249 22.9447 29.8222 23.1343C29.8168 23.5216 29.8204 23.9094 29.8204 24.2967C29.8208 24.6607 29.81 25.0247 29.8244 25.3877C29.8343 25.6486 29.7455 25.8178 29.5048 25.8829C28.8827 26.0507 28.2665 26.2626 27.6345 26.3686C26.5026 26.5577 25.3599 26.5506 24.2375 26.2826C22.0909 25.7708 20.7336 24.3556 20.1629 22.1349C19.6292 20.0578 19.8167 18.0376 20.8436 16.1558C21.5621 14.839 22.6002 13.8871 24.0242 13.5122C25.1751 13.2095 26.3417 13.2095 27.4894 13.5716C28.9364 14.0283 29.8803 15.0528 30.4357 16.5089C30.927 17.7981 30.9103 19.132 30.7571 20.4783V20.4783ZM13.3575 18.9695C12.2026 18.9657 11.0477 18.9638 9.89279 18.96C9.87972 18.96 9.86664 18.9462 9.83464 18.9287C10.4409 16.8087 11.0486 14.6845 11.6585 12.5518C11.7333 12.8317 11.8036 13.1192 11.887 13.4029C12.3964 15.1298 12.9085 16.8558 13.4201 18.5822C13.44 18.6502 13.4616 18.7177 13.4801 18.7856C13.5112 18.8997 13.4877 18.97 13.3575 18.9695V18.9695ZM27.1463 18.3793C26.54 18.4059 25.9319 18.3855 25.3247 18.3855V18.3969C24.7545 18.3969 24.1847 18.3978 23.6149 18.3969C23.3508 18.3964 23.3359 18.3769 23.3805 18.1175C23.5604 17.063 24.2118 16.3079 25.1611 16.1349C26.4476 15.8997 27.3528 16.641 27.6007 17.7045C27.7238 18.2325 27.6562 18.357 27.1463 18.3793Z" fill="black"/>
</svg>
