<svg width="36" height="37" viewBox="0 0 36 37" fill="none" xmlns="http://www.w3.org/2000/svg">
<path d="M35.8524 5.45191C35.3574 2.48596 32.8838 0.185818 30.0308 0.0370687C29.5969 0.0147326 29.1622 0.00285172 28.7276 0.00237648C21.3588 0.000475535 13.9896 0.00237648 6.6204 2.99003e-07C4.84245 -0.000474937 3.2697 0.565531 1.9791 1.88194C0.7983 3.08666 0.1503 4.56179 0.05085 6.29831C0.04455 6.40761 0.01755 6.51549 0 6.62384V30.3552C0.04725 30.7383 0.07965 31.1242 0.14355 31.5039C0.64845 34.4965 3.10005 36.7823 5.9688 36.9449C6.07995 36.9511 6.18975 36.981 6.3 37H29.7C30.0703 36.9492 30.4434 36.9116 30.8111 36.8446C33.412 36.3689 35.5437 34.0283 35.8943 31.2701C35.933 30.9659 35.9649 30.6603 36 30.3552V6.62384C35.9514 6.2332 35.9172 5.8397 35.8524 5.45191ZM21.591 26.0948C20.7886 26.0948 19.9863 26.0952 19.184 26.0948C18.6768 26.0943 18.6682 26.0876 18.5 25.5725C18.1629 24.5407 17.8209 23.5104 17.4942 22.4754C17.4213 22.2439 17.3138 22.1498 17.0766 22.1508C15.4346 22.1598 13.792 22.1593 12.15 22.1512C11.916 22.1503 11.7999 22.2349 11.7297 22.4715C11.4138 23.5361 11.0844 24.5954 10.7577 25.6561C10.6335 26.0591 10.5849 26.0938 10.1763 26.0943C9.3816 26.0952 8.58645 26.0962 7.79175 26.0943C7.3836 26.0933 7.31835 25.9935 7.44885 25.5972C8.6643 21.9065 9.87885 18.2158 11.0934 14.5251C11.4601 13.4121 11.8454 12.3053 12.1842 11.1828C12.3255 10.7137 12.3795 10.2133 12.4488 9.72334C12.4897 9.43677 12.5262 9.36976 12.8142 9.36786C13.2287 9.36501 13.6431 9.36596 14.058 9.36643C14.2357 9.36643 14.4135 9.36691 14.5912 9.36691C14.9242 9.36643 15.2577 9.36881 15.5907 9.36881C15.835 9.36881 16.0794 9.36738 16.3237 9.36358C16.5627 9.3593 16.6892 9.46196 16.7688 9.70005C17.888 13.049 19.0129 16.3961 20.1371 19.7432C20.7729 21.6366 21.4092 23.5299 22.0482 25.4223C22.2646 26.0639 22.2466 26.0948 21.591 26.0948ZM27.1949 25.6727C27.1949 26.128 27.1476 26.1798 26.721 26.1812C25.911 26.1831 25.101 26.1836 24.291 26.1808C23.8617 26.1793 23.7947 26.1071 23.7947 25.6561C23.7942 21.7563 23.7942 17.8565 23.7951 13.9567C23.7951 13.5167 23.8491 13.4573 24.2564 13.4558C25.0889 13.4539 25.9214 13.4535 26.7539 13.4563C27.1399 13.4577 27.1944 13.5186 27.1944 13.9263C27.1953 15.8957 27.1949 17.8656 27.1949 19.8349C27.1949 21.8043 27.1953 23.7271 27.1949 25.6727ZM25.5389 12.1874C24.4165 12.187 23.6295 11.3543 23.6264 10.1639C23.6236 9.02474 24.4485 8.17359 25.5537 8.17502C26.6661 8.17644 27.4126 8.96961 27.4144 10.1515C27.4163 11.3311 26.6269 12.1884 25.5389 12.1874ZM14.5912 9.36596L14.058 9.36643C14.2357 9.36643 14.4135 9.36691 14.5912 9.36691C14.9242 9.36643 15.2577 9.36881 15.5907 9.36881C15.2572 9.36881 14.9242 9.36596 14.5912 9.36596ZM16.1095 18.9006C15.0822 18.9011 14.0553 18.9011 13.028 18.9006C12.9474 18.9006 12.8664 18.893 12.7512 18.8873C13.3708 16.7278 13.9783 14.6083 14.5931 12.4654C14.6277 12.5885 14.6583 12.6993 14.6907 12.81C15.2496 14.7214 15.8094 16.6328 16.3683 18.5442C16.4691 18.8902 16.461 18.9001 16.1095 18.9006Z" fill="black"/>
</svg>
