<svg width="35" height="38" viewBox="0 0 35 38" fill="none" xmlns="http://www.w3.org/2000/svg">
<path d="M9.73705 15.5703C8.72482 15.6004 7.70755 16.0459 7.13429 17.2311C6.89928 17.7165 6.7717 18.2825 6.69532 18.8282C6.32854 21.4589 8.2783 23.3545 10.7308 22.7805C12.0704 22.4678 12.9424 21.3978 13.1229 19.6847C13.368 17.3595 12.1577 15.5694 9.73705 15.5703V15.5703ZM11.5231 20.6511C11.2235 21.3296 10.6972 21.6591 9.99137 21.6892C9.26619 21.7193 8.68621 21.427 8.37566 20.7388C8.16583 20.2729 8.08189 19.7441 7.95432 19.2905C8.07014 18.7856 8.1247 18.3587 8.26655 17.9672C8.5687 17.1363 9.19484 16.7519 10.0862 16.7855C10.8097 16.813 11.3754 17.2648 11.618 18.0664C11.8799 18.9336 11.895 19.8087 11.5231 20.6511V20.6511ZM26.9811 0H8.01894C3.59065 0 0 3.78937 0 8.46275V29.5372C0 34.2106 3.59065 38 8.01894 38H26.9811C31.4094 38 35 34.2106 35 29.5372V8.46275C35 3.78937 31.4094 0 26.9811 0ZM28.7588 29.5683C28.7571 30.0953 28.5926 30.6409 28.4121 31.1423C28.2241 31.664 27.7507 31.7694 27.2614 31.7694C25.3452 31.7676 23.429 31.7694 21.5128 31.7694H11.1496C10.0207 31.7694 9.51043 31.2486 9.48609 30.0333C9.46427 28.9119 9.45252 27.7896 9.47014 26.6682C9.47686 26.2306 9.35432 26.0756 8.92374 26.0783C7.51199 26.088 6.0994 26.0561 4.68765 26.0375C3.89784 26.0269 3.50839 25.6177 3.50839 24.7753C3.50755 21.1303 3.51091 17.4844 3.51679 13.8386C3.51847 12.9457 3.90707 12.5409 4.75228 12.5382C6.44436 12.5347 8.13645 12.5365 9.82938 12.5329C10.3707 12.532 10.3892 12.5108 10.39 11.9279C10.3917 10.8659 10.3833 9.80294 10.3909 8.74C10.3968 7.84979 10.8231 7.39716 11.6549 7.39716C16.6195 7.3945 21.585 7.3945 26.5496 7.39716C27.3663 7.39716 27.7994 7.84713 27.7994 8.70545C27.7986 11.8323 27.7977 14.9582 27.7734 18.0841C27.77 18.5545 27.8758 18.8733 28.2988 19.0664C28.6614 19.2338 28.8158 19.5341 28.7302 19.9655C28.6941 20.1506 28.7042 20.3473 28.7059 20.5395C28.7277 23.5494 28.7688 26.5593 28.7588 29.5683V29.5683Z" fill="black"/>
</svg>
