<svg width="35" height="38" viewBox="0 0 35 38" fill="none" xmlns="http://www.w3.org/2000/svg">
<path d="M26.9811 0H8.01894C3.59065 0 0 3.78937 0 8.46275V29.5372C0 34.2106 3.59065 38 8.01894 38H26.9811C31.4094 38 35 34.2106 35 29.5372V8.46275C35 3.78937 31.4094 0 26.9811 0ZM27.6089 31.3947C27.6055 32.7633 26.8199 33.5374 25.5122 33.5374C20.2689 33.5392 15.0248 33.5392 9.78153 33.5374C8.40336 33.5374 7.66055 32.7597 7.65803 31.2884C7.65132 27.2156 7.65552 23.1428 7.65552 19.07V6.9835C7.65468 6.33245 7.74952 5.7186 8.21115 5.23054C8.56367 4.85762 8.98417 4.64415 9.48357 4.64415C13.1472 4.63972 16.8109 4.63706 20.4737 4.64946C20.6475 4.65035 20.8632 4.74601 20.9866 4.87534C23.1319 7.11991 25.268 9.37333 27.3932 11.6383C27.5224 11.7756 27.6055 12.0271 27.6055 12.2255C27.6164 18.6156 27.6206 25.0047 27.6089 31.3947V31.3947ZM23.2561 16.3356C23.2209 17.6359 23.4164 17.4658 22.1893 17.4685C19.0007 17.4756 15.8121 17.4711 12.6235 17.4703C12.0259 17.4703 12.0192 17.4676 12.0251 16.8228C12.0351 15.6562 11.8857 15.8174 12.9794 15.8121C14.0789 15.8059 15.1784 15.8068 16.2779 15.8085C16.7303 15.8094 17.1836 15.8103 17.636 15.8103C18.0884 15.8103 18.5299 15.8112 18.9772 15.8112C19.6504 15.813 20.3252 15.8138 20.9992 15.8121C21.3676 15.8121 21.7353 15.8103 22.1037 15.8076C22.3211 15.8076 22.5377 15.805 22.7542 15.8023C23.1403 15.7979 23.267 15.9308 23.2561 16.3356V16.3356ZM22.2707 21.3854C20.7188 21.3943 19.1669 21.3881 17.615 21.3881C15.9229 21.3881 14.2308 21.3757 12.5396 21.396C12.1333 21.4005 12.0041 21.2641 12.0167 20.8398C12.0536 19.574 11.8639 19.7343 13.065 19.7317C16.2536 19.7255 19.4414 19.729 22.6291 19.7299C23.2469 19.7299 23.2536 19.7317 23.2486 20.3552C23.2368 21.5528 23.3954 21.3783 22.2707 21.3854V21.3854ZM20.1464 24.2429C20.1112 25.5193 20.2916 25.3448 19.1006 25.3546C18.0808 25.3634 17.0602 25.3564 16.0404 25.3564C14.8805 25.3564 13.7205 25.3448 12.5606 25.3634C12.177 25.3688 12.0032 25.2642 12.0167 24.8196C12.0561 23.4918 11.8522 23.7053 13.0826 23.6982C15.2623 23.6867 17.4429 23.7044 19.6227 23.6867C20.0281 23.6831 20.1573 23.8195 20.1464 24.2429V24.2429Z" fill="black"/>
</svg>
