<svg width="36" height="38" viewBox="0 0 36 38" fill="none" xmlns="http://www.w3.org/2000/svg">
<path d="M27.3518 0H8.07061C3.73394 0 0.218018 3.76019 0.218018 8.39814V29.4591C0.218018 34.097 3.73394 37.8572 8.07061 37.8572H27.3518C31.6885 37.8572 35.2044 34.097 35.2044 29.4591V8.39814C35.2044 3.76019 31.6885 0 27.3518 0ZM19.975 30.7885C15.6532 31.3502 12.1644 29.622 9.51123 25.9533C9.32106 25.691 9.13584 25.5792 8.83126 25.5844C7.95371 25.5985 7.07617 25.5889 6.19781 25.5818C5.42729 25.5765 5.00498 25.1266 5.00333 24.2982C4.99922 22.4793 5.00169 20.6595 5.00169 18.8406H5.00416C5.00416 17.0807 5.00333 15.3199 5.00416 13.5599C5.00498 12.5035 5.37954 12.1099 6.38056 12.1082C7.23094 12.1073 8.08214 12.0914 8.93169 12.1161C9.25932 12.1258 9.44784 11.9946 9.64129 11.7261C11.51 9.13416 13.9459 7.54239 16.9843 7.06874C22.0001 6.28782 26.8991 9.28207 28.8805 14.3109C31.751 21.6006 27.3386 29.8315 19.975 30.7885V30.7885Z" fill="black"/>
<path d="M11.9635 15.2713C11.067 15.1753 10.1573 15.2211 9.25345 15.2053C9.0814 15.2026 8.90935 15.2053 8.73401 15.2053V22.4519H10.0133V19.9559C10.7147 19.9145 11.3485 19.9251 11.9692 19.8309C13.1621 19.6495 13.9046 18.6934 13.8955 17.4362C13.8857 16.179 13.2477 15.4086 11.9635 15.2713V15.2713ZM11.7387 18.711C11.1962 18.8167 10.6323 18.8008 10.0437 18.8404V16.3014C10.615 16.3304 11.1633 16.3111 11.6967 16.3973C12.2508 16.4871 12.5002 16.878 12.5117 17.4855C12.5232 18.1546 12.2862 18.6045 11.7387 18.711V18.711Z" fill="black"/>
</svg>
