<svg width="36" height="38" viewBox="0 0 36 38" fill="none" xmlns="http://www.w3.org/2000/svg">
<path d="M27.2051 0H8.72999C4.1709 0 0.474365 3.89753 0.474365 8.70452V29.1527C0.474365 33.9597 4.1709 37.8572 8.72999 37.8572H27.2051C31.7642 37.8572 35.4608 33.9597 35.4608 29.1527V8.70452C35.4608 3.89753 31.7642 0 27.2051 0ZM28.8601 29.3561C28.8568 30.4267 28.4535 30.8536 27.4398 30.8536C21.9722 30.8563 16.5055 30.8554 11.0379 30.8536C10.0526 30.8536 9.65015 30.4231 9.64765 29.3807C9.64514 28.3243 9.62594 27.2678 9.65266 26.2122C9.66351 25.7869 9.50904 25.691 9.14498 25.6945C7.75387 25.7086 6.36277 25.7015 4.97166 25.6971C4.1066 25.6945 3.72084 25.2895 3.72084 24.3827C3.72 20.7898 3.72167 17.196 3.72417 13.6022C3.72501 12.6566 4.09909 12.2561 4.98502 12.2534C6.32102 12.2499 7.65618 12.2525 8.99217 12.2508C9.43862 12.2508 9.6624 12.0219 9.66351 11.5641C9.66518 10.5516 9.66101 9.54002 9.67103 8.52756C9.68021 7.59258 10.076 7.17879 10.9461 7.17879C16.4829 7.17967 22.0198 7.18143 27.5558 7.18495C28.4217 7.18583 28.8 7.58201 28.8025 8.50027C28.81 11.7569 28.8133 15.0126 28.8184 18.2692C28.8192 18.4884 28.8184 18.7085 28.8184 18.9286H28.8601V24.9118C28.8601 26.3935 28.8643 27.8753 28.8601 29.3561Z" fill="black"/>
<path d="M7.24842 15.3523C7.77948 15.3523 8.21117 15.325 8.63619 15.3682C8.77229 15.3823 8.93762 15.5548 9.01027 15.6992C9.40188 16.4713 9.76928 17.2575 10.1834 18.1194C10.4147 17.6748 10.6101 17.2989 10.8047 16.923C10.9116 16.717 11.0159 16.5101 11.1228 16.304C11.6864 15.2212 11.7683 15.1824 13.0475 15.4052C12.9698 15.5566 12.9072 15.6948 12.8312 15.826C12.3093 16.7266 11.7958 17.6326 11.2556 18.5209C11.0752 18.8176 11.0585 19.0394 11.2481 19.3485C11.881 20.3812 12.4805 21.4359 13.1418 22.5663C12.5982 22.5663 12.124 22.5839 11.653 22.5514C11.562 22.5452 11.4652 22.355 11.4017 22.2327C10.9842 21.4245 10.5759 20.6118 10.1258 19.7253C9.68661 20.5669 9.26828 21.325 8.8942 22.1068C8.72219 22.4668 8.51762 22.642 8.12517 22.598C7.81037 22.5628 7.48973 22.591 7.08142 22.591C7.18747 22.3903 7.25009 22.2547 7.32691 22.1288C7.87467 21.2281 8.41241 20.3196 8.98271 19.4347C9.19647 19.1028 9.2307 18.8546 9.01277 18.4971C8.48589 17.6352 8.00743 16.7398 7.51061 15.8577C7.43462 15.723 7.36782 15.583 7.24842 15.3523V15.3523Z" fill="black"/>
</svg>
