<svg width="36" height="37" viewBox="0 0 36 37" fill="none" xmlns="http://www.w3.org/2000/svg">
<path d="M35.7578 9.83535C35.7553 8.87665 35.7259 7.90761 35.5895 6.96268C35.1231 3.73772 33.446 1.50246 30.4708 0.524807C29.4244 0.18112 28.2799 0.040717 27.1779 0.0312419C21.6654 -0.0169948 16.1521 0.001094 10.6397 0.0165987C9.63571 0.0191828 8.62847 0.0786173 7.62858 0.177675C4.66568 0.47054 2.16514 2.57745 1.34987 5.58535C1.05089 6.68791 0.91283 7.86884 0.890774 9.01791C0.829506 12.1318 0.869534 15.2465 0.869534 18.3612C0.869534 21.1891 0.856464 24.0161 0.876886 26.844C0.884238 27.8311 0.920999 28.8251 1.03945 29.8028C1.35232 32.3679 2.57278 34.331 4.6959 35.6506C6.16551 36.5645 7.8034 36.7799 9.45518 36.7893C14.9276 36.8203 20.3992 36.81 25.8716 36.7936C26.9434 36.7902 28.025 36.7695 29.0845 36.6171C32.0777 36.1864 34.1583 34.4843 35.226 31.473C35.6467 30.2869 35.7513 29.037 35.7553 27.7906C35.7758 21.8058 35.7717 15.8201 35.7578 9.83535ZM25.6519 19.3388C25.3202 21.0409 23.983 22.2985 22.3704 22.4716C20.6149 22.6611 19.2474 21.6835 18.3488 19.5533V23.2564C18.3488 24.3038 18.3553 25.3521 18.3463 26.3995C18.3276 28.5202 16.6717 30.2326 14.6458 30.2352C12.6076 30.2378 10.9558 28.5434 10.9272 26.4227C10.9019 24.5665 11.95 23.0608 13.6361 22.5285C13.7104 22.5044 13.7856 22.4811 13.9065 22.4432C12.0374 21.8101 10.9109 20.5784 10.9395 18.4869C10.9681 16.4119 12.1183 15.2189 13.855 14.6806C13.3714 14.4015 12.7971 14.1568 12.3201 13.7778C11.1364 12.8355 10.6846 11.1739 11.12 9.63551C11.5424 8.14534 12.8069 6.99197 14.2896 6.94718C16.9143 6.86793 19.5431 6.83434 22.1678 6.88258C23.9887 6.91531 25.4991 8.46233 25.6797 10.2841C25.8782 12.2825 24.8015 13.9872 22.9814 14.5565C22.9169 14.5772 22.8532 14.5987 22.6808 14.6556C23.742 14.9484 24.5491 15.4816 25.1087 16.3749C25.678 17.2828 25.8578 18.2819 25.6519 19.3388V19.3388Z" fill="black"/>
<path d="M20.8811 14.749C19.6451 15.2494 18.8045 16.1341 18.3487 17.458C18.3487 16.6862 18.3332 15.9135 18.3626 15.1435C18.3675 14.9979 18.5448 14.7429 18.651 14.7378C19.3894 14.7025 20.1295 14.7188 20.8811 14.749V14.749Z" fill="black"/>
</svg>
