<svg width="37" height="38" viewBox="0 0 37 38" fill="none" xmlns="http://www.w3.org/2000/svg">
<path d="M36.5559 9.4904C36.5538 8.56603 36.4935 7.62851 36.3354 6.7206C35.8445 3.90255 34.3491 1.88715 31.8354 0.743485C30.6551 0.206192 29.4019 0.0318459 28.1394 0.0186877C24.9758 -0.0131113 21.8122 0.00881904 18.6486 0.00881904V0.00552949C15.692 0.00552949 12.7364 -0.0120148 9.78077 0.0153981C8.86872 0.0241703 7.94418 0.0757066 7.04981 0.246763C4.44156 0.746775 2.54465 2.26326 1.43084 4.82911C0.857821 6.1526 0.684145 7.56272 0.678946 8.986C0.657106 15.4554 0.659186 21.926 0.676866 28.3965C0.679985 29.3209 0.740304 30.2595 0.901499 31.1663C1.40277 33.9822 2.90344 35.9921 5.42225 37.1259C6.6203 37.6654 7.89115 37.8386 9.17135 37.843C15.3779 37.8628 21.5834 37.8617 27.79 37.843C28.6147 37.8397 29.4529 37.7696 30.2609 37.6029C32.8401 37.0689 34.7182 35.5568 35.8123 33.0052C36.3739 31.6981 36.5486 30.3056 36.5538 28.9009C36.5767 22.4315 36.5736 15.9609 36.5559 9.4904V9.4904ZM28.6916 21.8317H28.6885C28.6885 24.9118 28.6895 27.9919 28.6885 31.072C28.6875 32.4021 28.0749 33.0512 26.8093 33.0523C21.3473 33.0545 15.8854 33.0545 10.4235 33.0512C9.15471 33.0501 8.47249 32.2881 8.54009 30.9657C8.54945 30.7847 8.54529 30.6016 8.54529 30.4196C8.54633 22.8383 8.54737 15.257 8.54633 7.67566C8.54633 7.42127 8.54425 7.16578 8.52345 6.91139C8.42985 5.78198 9.26599 4.79731 10.3455 4.7984C13.8367 4.80279 17.3278 4.84665 20.819 4.79621C21.7072 4.78415 22.3114 5.09227 22.8834 5.75566C23.7185 6.72279 24.618 7.62961 25.4968 8.55507C26.4619 9.57154 27.4499 10.5661 28.3911 11.6067C28.5772 11.8128 28.6781 12.1856 28.6791 12.4828C28.6999 15.5991 28.6927 18.7154 28.6927 21.8317H28.6916Z" fill="black"/>
<path d="M23.5992 19.2023C23.5971 18.3427 23.2445 17.9534 22.4396 17.9501C19.953 17.9413 17.4675 17.9402 14.9809 17.9501C14.1271 17.9534 13.7579 18.3602 13.7527 19.2659C13.7465 20.1837 13.7486 21.1015 13.7496 22.0182C13.7496 22.4118 13.7506 22.8055 13.7506 23.198C13.7496 23.8077 13.7496 24.4174 13.7496 25.027C13.7496 25.6367 13.7496 26.2475 13.7506 26.8571C13.7527 27.8933 14.125 28.3188 15.1109 28.3254C17.5455 28.3396 19.9801 28.3363 22.4136 28.3264C23.1676 28.3232 23.5971 27.8528 23.5981 27.0655C23.6023 24.4437 23.6033 21.823 23.5992 19.2023V19.2023ZM22.5478 25.0424C22.5467 25.4448 22.2711 25.4887 21.9706 25.4876C20.8484 25.4854 19.7274 25.4865 18.6052 25.4865V25.4898C17.5008 25.4898 16.3963 25.4777 15.2929 25.4952C14.8551 25.5018 14.6669 25.333 14.6721 24.8582C14.6856 23.5665 14.6825 22.2748 14.6648 20.9842C14.6575 20.4502 15.0256 20.5171 15.3096 20.5171C16.6709 20.5171 18.0332 20.5532 19.3956 20.5565C20.2921 20.5587 21.1885 20.5335 22.085 20.5094C22.3866 20.5006 22.5467 20.6344 22.5478 20.9502C22.5519 22.3142 22.555 23.6783 22.5478 25.0424V25.0424Z" fill="black"/>
</svg>
