<svg width="35" height="38" viewBox="0 0 35 38" fill="none" xmlns="http://www.w3.org/2000/svg">
<path d="M28.2676 0H6.73235C3.01412 0 0 3.21944 0 7.19097V30.809C0 34.7806 3.01412 38 6.73235 38H28.2676C31.9859 38 35 34.7806 35 30.809V7.19097C35 3.21944 31.9859 0 28.2676 0ZM28.6036 29.728C28.5592 30.539 28.1565 30.9445 27.3898 30.9445C22.1192 30.9454 16.8486 30.9427 11.5788 30.9498C11.3268 30.9506 11.0476 31.1222 10.8286 31.05C10.4901 30.9383 10.136 30.7422 9.89635 30.4721C9.72671 30.2795 9.67894 29.9083 9.67235 29.6145C9.646 28.5158 9.64765 27.4154 9.66412 26.3168C9.66988 25.9544 9.562 25.8286 9.21941 25.8321C7.84741 25.8462 6.47459 25.8374 5.10259 25.8347C4.16706 25.833 3.81953 25.4582 3.81953 24.4449C3.81953 20.8965 3.82035 17.3489 3.822 13.8014C3.82282 12.7951 4.17365 12.4186 5.11 12.4169C6.46882 12.4151 7.82765 12.4019 9.18647 12.4213C9.58835 12.4265 9.70859 12.27 9.70118 11.8565C9.68224 10.8019 9.69129 9.74542 9.69953 8.68986C9.70612 7.82343 10.1426 7.35546 10.9455 7.35546C16.3948 7.35282 21.8433 7.35282 27.2918 7.35546C28.1342 7.35634 28.5304 7.76801 28.5336 8.66875C28.5468 11.7615 28.5509 14.8543 28.5584 17.948C28.5584 18.3288 28.5584 18.7097 28.5584 19.0906H28.6004C28.6004 20.2473 28.6004 21.404 28.6004 22.5616C28.602 24.8768 28.6045 27.192 28.6061 29.5081C28.6069 29.5811 28.6078 29.655 28.6036 29.728V29.728ZM14.4365 15.5C14.3986 15.7383 14.3805 15.9063 14.3442 16.07C13.8864 18.152 13.4219 20.2315 12.9722 22.3153C12.9055 22.625 12.7861 22.756 12.4765 22.7455C11.1193 22.7015 11.4388 22.9891 11.1102 21.6055C10.7652 20.147 10.4489 18.6807 10.1195 17.2188C10.0998 17.2179 10.0792 17.217 10.0594 17.2161C9.70612 18.883 9.34047 20.5473 9.00941 22.2194C8.92788 22.6302 8.77306 22.7622 8.38188 22.7525C7.35741 22.7287 7.35741 22.749 7.12271 21.6908C6.70271 19.7952 6.28271 17.9005 5.86353 16.004C5.83306 15.865 5.81741 15.7216 5.78282 15.5096C6.17482 15.5096 6.52729 15.4894 6.87565 15.5228C6.96541 15.5316 7.09388 15.6979 7.11612 15.8113C7.45624 17.56 7.78071 19.3123 8.11012 21.0636C8.11753 21.1023 8.13812 21.1375 8.17765 21.2413C8.44282 20.0133 8.694 18.8487 8.94518 17.685C9.07447 17.085 9.212 16.4878 9.32977 15.8861C9.38329 15.6108 9.50682 15.4903 9.77859 15.4973C11.102 15.5307 10.7825 15.3108 11.0822 16.5573C11.3787 17.7914 11.6472 19.0334 11.9247 20.2728C11.9906 20.5693 12.0433 20.8692 12.1281 21.2976C12.2904 20.4136 12.4328 19.65 12.5704 18.8848C12.7392 17.9506 12.9278 17.0191 13.0595 16.0787C13.1246 15.6178 13.3033 15.4401 13.7282 15.4947C13.9407 15.5219 14.1589 15.5 14.4365 15.5V15.5Z" fill="black"/>
</svg>
