<svg width="37" height="37" viewBox="0 0 37 37" fill="none" xmlns="http://www.w3.org/2000/svg">
<path d="M36.3169 5.42325C35.9063 3.31156 34.7917 1.74772 32.9909 0.736113C32.1037 0.23771 31.1471 0 30.1409 0C22.3702 0 14.5995 0.000629695 6.82885 0.000944542C4.26021 0.137273 2.394 1.42185 1.23173 3.83295C0.891554 4.53852 0.712513 5.30077 0.653429 6.0923C0.650147 6.13763 0.635525 6.18234 0.625977 6.22737V30.5758C0.665366 30.8491 0.693415 31.1249 0.745636 31.3953C1.12341 33.3508 2.12843 34.8473 3.74517 35.8772C4.75496 36.5207 5.86143 36.806 7.04161 36.8057C14.7004 36.8022 22.3591 36.8208 30.0179 36.795C32.7629 36.7858 34.7261 35.3932 35.9063 32.7863C36.199 32.1396 36.3491 31.4441 36.4052 30.7282C36.4091 30.6768 36.4243 30.6265 36.4341 30.5758V6.22737C36.3957 5.95912 36.3685 5.68866 36.3169 5.42325ZM20.08 23.1778C19.9502 24.0241 19.8171 24.8701 19.6843 25.7161C19.6452 25.9651 19.5918 26.0108 19.3483 26.0108H10.0543C9.78988 26.0108 9.73259 25.9507 9.73259 25.6679C9.73229 22.3809 9.73259 19.0939 9.73259 15.8072V9.73665C9.73259 9.49296 9.78183 9.43912 10.0077 9.43912C10.9375 9.43881 11.8677 9.43881 12.7975 9.43912C13.0177 9.43912 13.0368 9.45864 13.0368 9.6888V22.8176H13.2609C15.4338 22.8176 17.6071 22.8173 19.7801 22.8176C20.1193 22.8176 20.1334 22.8308 20.08 23.1778V23.1778ZM28.7348 16.6624C28.4967 16.6671 28.2576 16.6532 28.0198 16.6674C27.2186 16.7159 26.4499 16.9079 25.7329 17.2952C25.5535 17.3922 25.3939 17.5301 25.2265 17.6513C25.1286 17.7228 25.0988 17.8213 25.0991 17.9488C25.1021 20.5019 25.1015 23.055 25.1015 25.6084C25.1015 25.8846 24.9704 26.0228 24.7082 26.0228H22.127C21.7937 26.0228 21.7773 26.0058 21.7773 25.6607C21.7767 22.6882 21.7797 19.7154 21.7731 16.743C21.7716 15.9725 21.7453 15.2021 21.7212 14.432C21.7128 14.1706 21.6767 13.9106 21.651 13.6502C21.6364 13.5051 21.6919 13.432 21.8304 13.4317C22.6859 13.4311 23.5411 13.4333 24.3966 13.4311C24.5566 13.4304 24.6542 13.507 24.7219 13.6546C24.8908 14.0227 24.9141 14.42 24.9415 14.8167C24.9469 14.8926 24.9424 14.9691 24.9424 15.0453C24.9624 15.0585 24.9827 15.0717 25.0027 15.085C25.034 15.033 25.0579 14.9738 25.0976 14.9304C25.777 14.1861 26.5553 13.6061 27.5137 13.3287C27.9243 13.21 28.3421 13.1666 28.767 13.1798C28.9028 13.1839 28.9705 13.2522 28.9708 13.392C28.9717 14.4194 28.9708 15.447 28.9714 16.4747C28.9714 16.6491 28.8524 16.6601 28.7348 16.6624Z" fill="black"/>
</svg>
