<svg width="35" height="37" viewBox="0 0 35 37" fill="none" xmlns="http://www.w3.org/2000/svg">
<path d="M28.3814 0H6.61858C2.96322 0 0 3.13645 0 7.00552V29.9945C0 33.8635 2.96322 37 6.61858 37H28.3814C32.0368 37 35 33.8635 35 29.9945V7.00552C35 3.13645 32.0368 0 28.3814 0ZM31.1212 6.99212C30.9628 10.5642 29.9459 13.817 27.6945 16.5613C27.5758 16.7059 27.4698 16.8662 27.3349 16.9918C24.428 19.7112 21.3539 22.1187 17.476 23.092C15.5388 23.5779 13.6304 24.1964 11.6879 24.6542C7.85842 25.5559 5.41409 27.9519 4.39551 31.9692C4.3331 32.2154 4.23753 32.4524 4.15767 32.6935C4.0682 32.6801 3.9783 32.6667 3.88884 32.6538C3.93074 31.8131 3.93204 30.9673 4.02151 30.1326C4.52556 25.4436 6.40299 21.5579 10.0614 18.7416C12.3674 16.9664 15.0051 16.0721 17.7527 15.3853C21.3107 14.4961 24.637 13.0128 27.4593 10.4635C29.1792 8.91003 30.306 7.00598 30.5111 4.57026C30.5176 4.48943 30.5355 4.40628 30.567 4.3333C30.5848 4.2908 30.6407 4.26678 30.8589 4.08432C30.961 5.13658 31.1622 6.07059 31.1212 6.99212V6.99212Z" fill="black"/>
</svg>
