<svg width="37" height="37" viewBox="0 0 37 37" fill="none" xmlns="http://www.w3.org/2000/svg">
<path d="M36.5761 6.72879C36.5442 2.72512 33.8161 0.00815432 30.0406 0.00266232C26.2702 -0.00282967 22.4999 0.00187775 18.7295 0.00187775C14.9592 0.00187775 11.1881 -0.0020451 7.41773 0.00266232C3.59627 0.00736975 0.875539 2.75258 0.851095 6.79234C0.803688 14.5094 0.799984 22.2264 0.852576 29.9427C0.880724 34.024 3.63775 36.8053 7.47476 36.8069C14.9592 36.8084 22.4428 36.81 29.9272 36.8061C33.7806 36.8037 36.5465 34.0428 36.5776 29.9693C36.6361 22.2225 36.6383 14.4749 36.5761 6.72879V6.72879ZM13.9029 24.7927C13.8984 25.99 13.7881 26.1171 12.7081 26.1187C10.1385 26.1218 10.4177 26.336 10.411 23.7218C10.3999 19.3729 10.4051 15.0233 10.4103 10.6736C10.411 9.32885 10.4807 9.26609 11.7659 9.25353C13.193 9.23994 13.9068 9.98031 13.9073 11.4747V17.6837C13.9066 18.4189 13.9073 19.1548 13.9073 19.89C13.9081 21.5242 13.9088 23.1585 13.9029 24.7927V24.7927ZM26.4058 25.7209C24.6206 26.2905 22.811 26.5918 20.9569 26.2411C18.6843 25.8111 17.0199 24.5385 16.3584 22.1213C15.614 19.4027 16.0747 16.9376 18.0525 14.9252C19.3184 13.6377 20.8843 13.0917 22.6191 13.0399C23.7939 13.0054 23.8436 12.9536 23.8502 11.6826C23.8554 10.7215 23.868 9.76037 23.8547 8.80005C23.845 8.15827 24.1302 7.86171 24.7206 7.84994C27.7428 7.79031 27.3184 7.72284 27.3398 10.3033C27.3576 12.4648 27.3436 14.6271 27.3436 16.7885H27.3554C27.3554 19.2803 27.3324 21.7721 27.3687 24.2639C27.3806 25.0532 27.1087 25.4973 26.4058 25.7209V25.7209Z" fill="black"/>
<path d="M23.8509 22.1818C23.8672 22.8754 23.5568 23.1233 22.922 23.1421C20.8509 23.2033 19.6842 21.988 19.6746 19.7065C19.6657 17.5732 20.9902 16.1532 22.9205 16.1861C23.5553 16.1971 23.865 16.4568 23.8509 17.1488C23.8338 18.0173 23.8472 18.8866 23.8472 19.7551C23.8472 20.564 23.8331 21.3729 23.8509 22.1818Z" fill="black"/>
</svg>
